<svg width="566" height="493" viewBox="0 0 566 493" fill="none" xmlns="http://www.w3.org/2000/svg">
<path d="M185.379 116.229C157.875 231.23 130.069 231.119 55.9405 270.681C-74.4938 340.293 141.812 442.303 286.863 455.798C433.178 469.412 537.434 249.394 549.562 178.753C558.688 125.597 532.178 116.229 497.944 97.1675C470.805 82.0566 219.76 -27.522 185.379 116.229Z" fill="#5C57FF" stroke="#5C57FF"/>
<path d="M368.522 217.724C368.524 217.724 368.504 217.744 368.457 217.785C368.498 217.744 368.521 217.724 368.522 217.724ZM295.021 148.655C294.804 149.49 294.585 150.335 294.364 151.185C293.183 139.803 291.932 127.356 291.091 118.852C291.227 115.248 290.084 110.837 286.368 107.364C281.994 103.276 276.072 102.364 270.383 102.918C263.321 103.606 257.432 107.131 254.742 113.411C252.932 117.638 253.154 121.832 253.881 124.899L254.25 150.984L244.57 129.819C243.583 126.95 241.468 123.542 237.608 121.325C232.657 118.481 227.008 118.805 221.923 121.037C216.443 123.442 212.606 127.737 211.476 133.253C210.607 137.494 211.582 141.304 212.874 143.954L219.929 162.847L217.414 159.462C213.794 153.998 205.932 150.672 197.095 154.225C191.079 156.643 188 161.566 187.183 166.402C186.484 170.542 187.426 174.301 188.425 176.663L188.651 177.197L188.934 177.703L218.692 230.835C219.326 232.47 220.229 235.024 221.033 237.791C221.98 241.053 222.591 243.944 222.706 245.824C222.985 250.361 224.564 260.714 226.343 270.186C227.252 275.025 228.26 279.891 229.257 283.948C229.754 285.97 230.274 287.899 230.805 289.573C231.271 291.042 231.962 293.033 232.947 294.735C235.828 299.717 241.175 303.816 246.235 306.625C251.594 309.599 258.295 312.055 265.257 312.663C272.317 313.28 279.86 314.56 283.518 315.27C286.041 316.282 289.403 317.213 293.091 317.546C297.444 317.939 303.274 317.58 308.753 314.411C312.982 311.964 317.242 308.943 320.563 306.352C322.235 305.047 323.76 303.78 324.995 302.671C325.852 301.901 327.597 300.324 328.725 298.609C329.187 297.908 334.308 290.297 339.998 282.084C345.886 273.586 351.716 265.425 353.884 262.973C355.732 260.883 358.47 257.469 361.276 253.969C362.794 252.075 364.333 250.156 365.761 248.409C367.931 245.754 369.953 243.355 371.647 241.508C373.266 239.742 373.983 239.163 373.966 239.141C373.963 239.136 373.927 239.156 373.86 239.194C373.937 239.15 374.015 239.104 374.096 239.058C376.096 237.902 379.086 236.175 381.403 234.326C382.558 233.404 384.422 231.784 385.778 229.488C387.318 226.879 388.826 222.055 385.96 217.1C381.452 209.307 370.811 206.113 358.704 209.304L357.855 209.528L357.055 209.89C352.262 212.056 347.863 214.923 344.386 217.319C342.991 218.28 341.826 219.103 340.824 219.81C338.996 221.1 337.716 222.004 336.589 222.656C334.791 223.696 332.865 224.799 331.052 225.672C330.761 224.951 330.461 224.107 330.169 223.135C328.732 218.352 327.585 210.758 328.481 199.943C330.034 181.187 334.658 146.551 336.797 131.458L336.854 131.052L336.88 130.644C337.062 127.752 336.459 123.918 334.236 120.354C331.766 116.393 327.611 113.317 321.998 112.347L321.874 112.325C320.437 112.077 318.758 111.787 317.318 111.681C315.921 111.579 312.716 111.439 309.479 113.311C306.359 115.116 304.908 117.851 304.462 118.69L304.433 118.745C304.231 119.126 304 119.59 303.848 119.897C303.812 119.97 303.78 120.033 303.755 120.085C303.573 120.449 303.401 120.784 303.2 121.147C302.366 122.654 301.704 124.7 301.32 125.896C300.804 127.504 300.206 129.527 299.558 131.809C298.257 136.388 296.675 142.306 295.021 148.655ZM332.728 228.841C332.728 228.841 332.723 228.835 332.712 228.822C332.723 228.834 332.728 228.841 332.728 228.841Z" fill="white" stroke="#5C57FF" stroke-width="21"/>
<path d="M402.071 368.263L402.086 368.043L402.077 367.822L399.406 306.537C399.772 302.447 401.014 293.826 403.111 288.944C404.728 285.177 407.883 275.571 410.559 266.313C411.909 261.645 413.163 256.971 414.063 253.06C414.512 251.106 414.882 249.302 415.131 247.762C415.366 246.303 415.54 244.807 415.47 243.597C415.238 239.557 413.047 234.655 410.072 230.279C407.023 225.796 402.77 221.296 397.76 218.196C391.115 214.084 384.382 209.075 381.542 206.85C380.157 205.189 377.907 203.05 375.089 201.296C372.051 199.404 368.02 197.756 363.502 198.015C359.004 198.274 354.149 199.002 350.218 199.781C348.247 200.172 346.466 200.583 345.041 200.97C343.803 201.306 342.354 201.742 341.42 202.279C340.63 202.733 332.58 207.252 323.78 212.035C314.863 216.882 305.569 221.783 302.081 223.175C299.626 224.155 295.93 225.841 291.973 227.647C289.724 228.674 287.39 229.739 285.152 230.734C281.989 232.141 278.968 233.434 276.447 234.387C273.74 235.411 272.143 235.83 271.569 235.863C271.51 235.866 271.45 235.869 271.39 235.873C268.961 236.012 265.945 236.185 263.536 236.69C262.331 236.943 260.866 237.355 259.628 238.149C258.274 239.018 256.72 240.711 256.868 243.285C257.156 248.295 261.993 254.288 272.557 256.532L272.884 256.601L273.218 256.615C277.875 256.813 282.626 256.301 286.716 255.74C288.101 255.55 289.375 255.361 290.543 255.188C293.003 254.823 294.998 254.527 296.591 254.435C299.197 254.285 302.553 254.098 305.465 254.318C306.926 254.429 308.065 254.629 308.842 254.89C309.1 254.976 309.266 255.051 309.365 255.103C309.405 255.214 309.456 255.377 309.511 255.601C309.628 256.076 309.736 256.734 309.796 257.581C309.915 259.276 309.83 261.602 309.313 264.52C308.282 270.346 305.555 278.402 299.521 288.251C289.579 304.482 269.754 333.472 261.057 345.976L260.968 346.104L260.889 346.238C260.01 347.74 259.241 350.094 259.482 352.743C259.739 355.569 261.132 358.492 264.203 360.77C265.487 361.722 266.613 362.554 267.552 363.117C268.464 363.664 269.851 364.375 271.57 364.277C273.27 364.179 274.518 363.319 275.146 362.876C275.413 362.687 275.715 362.461 275.99 362.255C276.07 362.195 276.147 362.137 276.221 362.082C276.581 361.815 276.967 361.532 277.416 361.226C278.213 360.682 279.268 359.652 280.262 358.642C281.372 357.514 282.761 356.038 284.347 354.315C287.521 350.863 291.563 346.333 295.886 341.421C304.328 331.83 313.901 320.723 320.325 313.204C319.944 314.806 319.221 317.069 318.058 320.549C315.779 327.368 303.03 360.618 296.741 376.905C295.64 378.683 294.943 381.353 296.004 384.239C297.173 387.418 300.11 389.876 304.524 391.587C309.428 393.488 313.645 392.897 316.681 390.345C319.108 388.304 320.218 385.465 320.619 383.309L345.889 331.371L343.816 385.854C343.511 387.64 343.666 390.132 345.155 392.392C346.893 395.03 349.925 396.58 353.95 396.795C358.139 397.019 361.335 395.575 363.332 393.05C365.036 390.896 365.53 388.376 365.501 386.534L372.764 320.519C372.766 320.51 372.769 320.498 372.773 320.484C372.785 320.443 372.802 320.393 372.825 320.343C372.837 320.315 372.849 320.29 372.861 320.269C372.959 320.451 373.083 320.731 373.207 321.137C373.607 322.456 373.722 324.154 373.674 325.296L373.656 325.726L373.729 326.15L381.367 370.094C381.706 373.513 384.697 377.795 391.264 378.353C395.215 378.688 398.085 376.911 399.811 374.566C401.377 372.437 401.959 369.948 402.071 368.263ZM322.587 311.229C322.587 311.229 322.58 311.232 322.566 311.236C322.58 311.231 322.587 311.229 322.587 311.229ZM346.273 322.712C346.272 322.699 346.272 322.692 346.272 322.693C346.273 322.693 346.273 322.698 346.273 322.708C346.273 322.709 346.273 322.711 346.273 322.712Z" fill="white" stroke="#5C57FF" stroke-width="8"/>
</svg>
