<svg width="324" height="465" viewBox="0 0 324 465" fill="none" xmlns="http://www.w3.org/2000/svg">
<mask id="mask0_136_30" style="mask-type:luminance" maskUnits="userSpaceOnUse" x="0" y="-1" width="324" height="466">
<path d="M200.076 465C231.485 452.16 237.023 412.979 237.023 412.979C226.361 421.573 218.089 423.94 212.207 423.94C204.968 423.94 201.345 420.35 201.345 420.35C225.873 397.505 201.345 328.224 201.345 328.224C188.244 376.648 153.196 391.95 132.137 391.95C126.913 391.95 122.545 391.006 119.594 389.395C104.728 381.288 102.499 368.757 132.227 342.226C161.955 315.693 115.878 275.159 115.878 275.159C125.54 290.633 119.594 304.636 109.932 312.01C100.27 319.378 82.4299 325.274 74.8399 351.072C67.2467 376.867 103.983 404.873 85.4043 410.414C84.5521 410.666 83.7032 410.789 82.861 410.789C65.3584 410.789 50.4726 358.44 50.4726 358.44C32.6591 419.528 101.931 462.262 102.125 462.378C47.2709 448.76 2.97788 412.767 0.143769 348.481C2.93109 411.601 45.6967 447.434 99.1738 461.599C35.0856 432.901 7.39624 294.733 7.25587 294.024C2.64376 308.411 0 324.177 0 341.872C0 196.542 177.068 180.816 177.068 -0.000242612C177.068 -0.000242612 286.075 102.201 231.03 198.504C231.03 198.504 295.984 170.989 286.075 127.751C286.075 127.751 369.591 359.441 288.755 427.502C312.812 407.249 322.3 372.496 323.777 333.679C323.603 334.315 297.575 429.922 200.076 465ZM287.772 428.318C287.803 428.291 287.839 428.261 287.873 428.235C287.839 428.265 287.806 428.291 287.772 428.318ZM287.913 428.202C287.946 428.175 287.983 428.145 288.016 428.119C287.98 428.145 287.95 428.175 287.913 428.202ZM288.046 428.092C288.087 428.059 288.127 428.029 288.163 427.996C288.13 428.026 288.083 428.062 288.046 428.092ZM288.184 427.98C288.377 427.821 288.565 427.665 288.755 427.506C288.565 427.665 288.374 427.824 288.184 427.98ZM0.143769 348.467C0.140427 348.341 0.133808 348.219 0.127124 348.093C0.133808 348.222 0.140427 348.341 0.143769 348.467ZM0.127124 348.089C0.123782 347.963 0.117085 347.841 0.113743 347.715C0.117085 347.838 0.123782 347.963 0.127124 348.089ZM0.113743 347.702C0.107058 347.579 0.103703 347.453 0.100361 347.33C0.103703 347.45 0.107058 347.582 0.113743 347.702ZM0.0969342 347.317C0.0935921 347.194 0.0903218 347.075 0.0869797 346.953C0.0903218 347.072 0.0935921 347.194 0.0969342 347.317ZM0.0835527 346.923C0.0802106 346.8 0.0769403 346.688 0.0735982 346.565C0.0769403 346.684 0.0802106 346.803 0.0835527 346.923ZM0.0735982 346.538C0.066914 346.419 0.0635588 346.293 0.0602167 346.174C0.0635588 346.296 0.066914 346.419 0.0735982 346.538ZM0.0602167 346.154C0.0568746 346.031 0.0536043 345.912 0.0502622 345.789C0.0536043 345.912 0.0568746 346.035 0.0602167 346.154ZM0.0502622 345.766C0.0469201 345.647 0.0434866 345.521 0.0401445 345.402C0.0434866 345.524 0.0469201 345.644 0.0502622 345.766ZM0.0401445 345.375C0.0368024 345.252 0.0367958 345.14 0.0334537 345.014C0.0367958 345.136 0.0368024 345.256 0.0401445 345.375ZM0.0334537 344.987C0.0301116 344.868 0.026763 344.742 0.026763 344.623C0.026763 344.745 0.0301116 344.865 0.0334537 344.987ZM0.0234992 344.6C0.0234992 344.477 0.0200722 344.358 0.0200722 344.235C0.0200722 344.358 0.0234992 344.48 0.0234992 344.6ZM0.0133815 343.817C0.0100394 343.695 0.0101177 343.572 0.0101177 343.449C0.0101177 343.575 0.0100394 343.691 0.0133815 343.817ZM0.0101177 343.433C0.00677561 343.307 0.00669075 343.181 0.00669075 343.055C0.00669075 343.181 0.00677561 343.304 0.0101177 343.433ZM0.00669075 343.042C0.00334864 342.916 0.00342697 342.787 0.00342697 342.664C0.00342697 342.79 0.00334864 342.916 0.00669075 343.042ZM0.00342697 342.647C0.00342697 342.525 0 342.395 0 342.27C0 342.395 0.00342697 342.521 0.00342697 342.647ZM0 342.256C0 342.127 0 342.001 0 341.872C0 342.001 0 342.13 0 342.256Z" fill="white"/>
</mask>
<g mask="url(#mask0_136_30)">
<path d="M200.076 465C231.485 452.16 237.022 412.979 237.022 412.979C226.361 421.573 218.089 423.94 212.207 423.94C204.968 423.94 201.345 420.35 201.345 420.35C225.873 397.505 201.345 328.224 201.345 328.224C188.244 376.648 153.196 391.95 132.137 391.95C126.913 391.95 122.545 391.006 119.594 389.395C104.728 381.288 102.499 368.757 132.227 342.226C161.955 315.693 115.878 275.159 115.878 275.159C125.54 290.633 119.594 304.636 109.932 312.01C100.27 319.378 82.4299 325.274 74.8399 351.072C67.2467 376.867 103.983 404.873 85.4043 410.414C84.552 410.666 83.7032 410.789 82.861 410.789C65.3584 410.789 50.4726 358.44 50.4726 358.44C32.6591 419.528 101.931 462.262 102.125 462.378C47.2709 448.76 2.97788 412.767 0.143769 348.481C2.93109 411.601 45.6967 447.434 99.1738 461.599C35.0855 432.901 7.39624 294.733 7.25587 294.024C2.64376 308.411 0 324.177 0 341.872C0 196.542 177.068 180.816 177.068 -0.000263545C177.068 -0.000263545 286.075 102.201 231.03 198.504C231.03 198.504 295.984 170.989 286.075 127.751C286.075 127.751 369.591 359.441 288.755 427.502C312.812 407.249 322.3 372.496 323.777 333.679C323.603 334.315 297.575 429.922 200.076 465ZM288.046 428.092C288.087 428.059 288.127 428.029 288.163 427.996C288.13 428.026 288.083 428.062 288.046 428.092ZM288.184 427.98C288.377 427.821 288.565 427.661 288.755 427.502C288.565 427.661 288.374 427.824 288.184 427.98Z" fill="url(#paint0_linear_136_30)"/>
</g>
<mask id="mask1_136_30" style="mask-type:luminance" maskUnits="userSpaceOnUse" x="200" y="333" width="124" height="132">
<path d="M200.075 465C297.574 429.922 323.603 334.315 323.776 333.679C322.299 372.496 312.811 407.249 288.754 427.502V427.506C288.564 427.665 288.377 427.821 288.183 427.98C288.173 427.986 288.173 427.986 288.163 427.996C288.126 428.029 288.086 428.059 288.046 428.092C288.036 428.102 288.026 428.109 288.016 428.119C287.982 428.145 287.946 428.175 287.912 428.202C287.899 428.215 287.889 428.222 287.872 428.235C287.839 428.261 287.802 428.291 287.772 428.318C287.759 428.328 287.745 428.338 287.735 428.347C287.688 428.384 287.645 428.42 287.598 428.457C265.199 446.536 233.864 459.12 200.075 465Z" fill="white"/>
</mask>
<g mask="url(#mask1_136_30)">
<path d="M200.075 465C297.574 429.922 323.603 334.315 323.776 333.679C322.299 372.496 312.811 407.249 288.754 427.502V427.506C288.564 427.665 288.377 427.821 288.183 427.98C288.173 427.986 288.173 427.986 288.163 427.996C288.126 428.029 288.086 428.059 288.046 428.092C288.036 428.102 288.026 428.109 288.016 428.119C287.982 428.145 287.946 428.175 287.912 428.202C287.899 428.215 287.889 428.222 287.872 428.235C287.839 428.261 287.802 428.291 287.772 428.318C287.759 428.328 287.745 428.338 287.735 428.347C287.688 428.384 287.645 428.42 287.598 428.457C265.199 446.536 233.864 459.12 200.075 465Z" fill="url(#paint1_linear_136_30)"/>
</g>
<mask id="mask2_136_30" style="mask-type:luminance" maskUnits="userSpaceOnUse" x="0" y="294" width="100" height="168">
<path d="M99.1738 461.598C45.6967 447.433 2.93109 411.599 0.143769 348.479C0.143769 348.476 0.143769 348.473 0.143769 348.466C0.140427 348.34 0.133808 348.221 0.127124 348.091V348.088C0.123782 347.962 0.117085 347.836 0.113743 347.714C0.113743 347.707 0.113743 347.704 0.113743 347.7C0.107058 347.581 0.103703 347.448 0.100361 347.329C0.100361 347.326 0.0969342 347.319 0.0969342 347.316C0.0935921 347.193 0.0903218 347.071 0.0869797 346.951C0.0836376 346.941 0.0835527 346.931 0.0835527 346.921C0.0802106 346.802 0.0769403 346.683 0.0735982 346.564C0.0735982 346.554 0.0735982 346.547 0.0735982 346.537C0.066914 346.418 0.0635588 346.295 0.0602167 346.173C0.0602167 346.166 0.0602167 346.163 0.0602167 346.153C0.0568746 346.033 0.0536043 345.911 0.0502622 345.788C0.0502622 345.781 0.0502622 345.772 0.0502622 345.765C0.0469201 345.642 0.0434866 345.523 0.0401445 345.4C0.0401445 345.394 0.0401445 345.384 0.0401445 345.374C0.0368024 345.254 0.0367958 345.135 0.0334537 345.013C0.0334537 345.006 0.0334537 344.993 0.0334537 344.986C0.0301116 344.863 0.026763 344.744 0.026763 344.621C0.026763 344.611 0.0268413 344.608 0.0234992 344.598C0.0234992 344.479 0.0200722 344.356 0.0200722 344.234C0.0200722 344.224 0.0200722 344.214 0.0200722 344.204C0.0167301 344.085 0.0133815 343.962 0.0133815 343.843C0.0133815 343.833 0.0133815 343.826 0.0133815 343.816C0.0100394 343.69 0.0101177 343.574 0.0101177 343.448C0.0101177 343.445 0.0101177 343.435 0.0101177 343.432C0.00677561 343.302 0.00669075 343.18 0.00669075 343.054C0.00669075 343.047 0.00669075 343.047 0.00669075 343.04C0.00334864 342.915 0.00342697 342.789 0.00342697 342.663C0.00342697 342.659 0.00342697 342.653 0.00342697 342.646C0.00342697 342.52 0 342.394 0 342.268C0 342.265 0 342.262 0 342.255C0 342.129 0 342 0 341.871C0 324.176 2.64376 308.41 7.25587 294.023C7.39624 294.732 35.0855 432.9 99.1738 461.598Z" fill="white"/>
</mask>
<g mask="url(#mask2_136_30)">
<path d="M99.1738 461.598C45.6967 447.433 2.93109 411.599 0.143769 348.479C0.143769 348.476 0.143769 348.473 0.143769 348.466C0.140427 348.34 0.133808 348.221 0.127124 348.091V348.088C0.123782 347.962 0.117085 347.836 0.113743 347.714C0.113743 347.707 0.113743 347.704 0.113743 347.7C0.107058 347.581 0.103703 347.448 0.100361 347.329C0.100361 347.326 0.0969342 347.319 0.0969342 347.316C0.0935921 347.193 0.0903218 347.071 0.0869797 346.951C0.0836376 346.941 0.0835527 346.931 0.0835527 346.921C0.0802106 346.802 0.0769403 346.683 0.0735982 346.564C0.0735982 346.554 0.0735982 346.547 0.0735982 346.537C0.066914 346.418 0.0635588 346.295 0.0602167 346.173C0.0602167 346.166 0.0602167 346.163 0.0602167 346.153C0.0568746 346.033 0.0536043 345.911 0.0502622 345.788C0.0502622 345.781 0.0502622 345.772 0.0502622 345.765C0.0469201 345.642 0.0434866 345.523 0.0401445 345.4C0.0401445 345.394 0.0401445 345.384 0.0401445 345.374C0.0368024 345.254 0.0367958 345.135 0.0334537 345.013C0.0334537 345.006 0.0334537 344.993 0.0334537 344.986C0.0301116 344.863 0.026763 344.744 0.026763 344.621C0.026763 344.611 0.0268413 344.608 0.0234992 344.598C0.0234992 344.479 0.0200722 344.356 0.0200722 344.234C0.0200722 344.224 0.0200722 344.214 0.0200722 344.204C0.0167301 344.085 0.0133815 343.962 0.0133815 343.843C0.0133815 343.833 0.0133815 343.826 0.0133815 343.816C0.0100394 343.69 0.0101177 343.574 0.0101177 343.448C0.0101177 343.445 0.0101177 343.435 0.0101177 343.432C0.00677561 343.302 0.00669075 343.18 0.00669075 343.054C0.00669075 343.047 0.00669075 343.047 0.00669075 343.04C0.00334864 342.915 0.00342697 342.789 0.00342697 342.663C0.00342697 342.659 0.00342697 342.653 0.00342697 342.646C0.00342697 342.52 0 342.394 0 342.268C0 342.265 0 342.262 0 342.255C0 342.129 0 342 0 341.871C0 324.176 2.64376 308.41 7.25587 294.023C7.39624 294.732 35.0855 432.9 99.1738 461.598Z" fill="url(#paint2_linear_136_30)"/>
</g>
<defs>
<linearGradient id="paint0_linear_136_30" x1="161.999" y1="-0.000237122" x2="161.999" y2="465" gradientUnits="userSpaceOnUse">
<stop stop-color="#F9A72B"/>
<stop offset="0.51" stop-color="#F68712"/>
<stop offset="0.83" stop-color="#F14624"/>
<stop offset="1" stop-color="#ED1C24"/>
</linearGradient>
<linearGradient id="paint1_linear_136_30" x1="161.998" y1="-0.000389098" x2="161.998" y2="465" gradientUnits="userSpaceOnUse">
<stop stop-color="#D5902E"/>
<stop offset="0.51" stop-color="#D3761A"/>
<stop offset="0.83" stop-color="#D04226"/>
<stop offset="1" stop-color="#CE2025"/>
</linearGradient>
<linearGradient id="paint2_linear_136_30" x1="161.999" y1="-0.00164381" x2="161.999" y2="464.999" gradientUnits="userSpaceOnUse">
<stop stop-color="#D5902E"/>
<stop offset="0.51" stop-color="#D3761A"/>
<stop offset="0.83" stop-color="#D04226"/>
<stop offset="1" stop-color="#CE2025"/>
</linearGradient>
</defs>
</svg>
